2.5Hzlow3min_grf.mot
version=1
nRows=22
nColumns 19
inDegrees=yes
endheader
time	1_ground_force_vx	1_ground_force_vy	1_ground_force_vz	1_ground_force_px	1_ground_force_py	1_ground_force_pz	1_ground_torque_x	1_ground_torque_y	1_ground_torque_z	2_ground_force_vx	2_ground_force_vy	2_ground_force_vz	2_ground_force_px	2_ground_force_py	2_ground_force_pz	2_ground_torque_x	2_ground_torque_y	2_ground_torque_z
            0.005000	           14.421595	          769.259674	          -95.559560	           -0.189242	            0.006246	           -0.408874	           -0.020140	           -1.074260	            0.133448	            8.706481	          741.416848	          107.385338	           -0.201352	            0.005823	           -0.716255	            0.009058	            0.771377	            0.111725
            0.005500	           15.334682	          776.835077	          -96.492342	           -0.189352	            0.006246	           -0.408827	           -0.017783	           -0.900867	            0.111899	            8.263311	          747.488804	          108.345762	           -0.201335	            0.005823	           -0.716129	            0.009086	            0.821877	            0.119128
            0.006000	           15.789928	          783.688665	          -97.243654	           -0.189542	            0.006246	           -0.408843	           -0.017963	           -0.891527	            0.110625	            8.149440	          753.193618	          109.351669	           -0.201359	            0.005823	           -0.716198	            0.008299	            0.767040	            0.111362
            0.006500	           15.511910	          790.541595	          -97.901441	           -0.189653	            0.006247	           -0.409000	           -0.020462	           -1.042835	            0.129146	            8.360092	          759.821095	          110.126073	           -0.201313	            0.005823	           -0.716162	            0.007402	            0.672763	            0.097508
            0.007000	           15.921991	          798.655430	          -98.280381	           -0.189674	            0.006246	           -0.408850	           -0.023761	           -1.191855	            0.146667	            8.524477	          766.264992	          110.712128	           -0.201350	            0.005822	           -0.716050	            0.005903	            0.530645	            0.076669
            0.007500	           15.827476	          806.048891	          -98.844600	           -0.189827	            0.006246	           -0.408846	           -0.023886	           -1.216469	            0.149174	            8.409153	          772.338969	          111.437764	           -0.201367	            0.005822	           -0.715882	            0.005374	            0.493589	            0.071218
            0.008000	           16.373999	          813.263557	          -99.732166	           -0.190002	            0.006246	           -0.408914	           -0.021719	           -1.078743	            0.132288	            8.577025	          777.860764	          112.395958	           -0.201229	            0.005822	           -0.715995	            0.004345	            0.394054	            0.056938
            0.008500	           17.149756	          819.757400	         -100.669243	           -0.189923	            0.006247	           -0.408978	           -0.017407	           -0.832054	            0.102179	            8.505831	          784.672097	          112.983427	           -0.201319	            0.005822	           -0.715941	            0.003588	            0.330955	            0.047654
            0.009000	           17.650679	          826.250797	         -101.513935	           -0.189871	            0.006247	           -0.409128	           -0.014023	           -0.656448	            0.080652	            8.250643	          790.561320	          113.755402	           -0.201219	            0.005821	           -0.715702	            0.003677	            0.352326	            0.050697
            0.009500	           17.968393	          834.365794	         -102.167775	           -0.190072	            0.006246	           -0.408948	           -0.013729	           -0.637511	            0.078063	            7.712464	          797.001174	          114.764116	           -0.201394	            0.005821	           -0.715879	            0.003117	            0.322062	            0.046375
            0.010000	           17.782632	          841.217760	         -102.596514	           -0.190159	            0.006247	           -0.409127	           -0.015599	           -0.737898	            0.089995	            7.787863	          802.155063	          115.486387	           -0.201360	            0.005821	           -0.715678	            0.001963	            0.202169	            0.029106
            0.010500	           17.459179	          847.709621	         -103.118162	           -0.190191	            0.006247	           -0.409196	           -0.017564	           -0.852787	            0.103736	            7.576722	          808.782311	          115.932482	           -0.201316	            0.005821	           -0.715741	            0.000948	            0.101220	            0.014509
            0.011000	           17.319473	          855.282190	         -103.406351	           -0.190291	            0.006247	           -0.409186	           -0.016829	           -0.831083	            0.100481	            7.743162	          814.673224	          116.657342	           -0.201246	            0.005822	           -0.715766	            0.000050	            0.005218	            0.000747
            0.011500	           17.133808	          862.854825	         -103.740279	           -0.190566	            0.006247	           -0.409044	           -0.013167	           -0.663064	            0.079720	            7.673818	          820.933245	          116.914350	           -0.201285	            0.005821	           -0.715705	           -0.000675	           -0.072189	           -0.010281
            0.012000	           17.175600	          870.070179	         -104.810016	           -0.190570	            0.006247	           -0.409114	           -0.009650	           -0.488829	            0.058885	            7.466021	          826.639440	          117.404080	           -0.201166	            0.005821	           -0.715658	           -0.001397	           -0.154711	           -0.021973
            0.012500	           17.355283	          876.564104	         -105.791467	           -0.190557	            0.006247	           -0.409219	           -0.006672	           -0.336966	            0.040668	            7.400870	          831.792944	          118.126411	           -0.201187	            0.005821	           -0.715419	           -0.002100	           -0.236072	           -0.033526
            0.013000	           17.353041	          883.235734	         -106.175567	           -0.190668	            0.006247	           -0.409159	           -0.006569	           -0.334338	            0.040191	            6.492401	          836.943570	          118.802181	           -0.201238	            0.005820	           -0.715407	           -0.002076	           -0.267645	           -0.037992
            0.013500	           16.708898	          890.448006	         -106.555770	           -0.190696	            0.006247	           -0.409134	           -0.007715	           -0.411150	            0.049200	            6.146048	          842.096774	          119.289999	           -0.201120	            0.005820	           -0.715285	           -0.002714	           -0.371796	           -0.052668
            0.014000	           15.697802	          896.939735	         -107.075711	           -0.190762	            0.006247	           -0.409158	           -0.010191	           -0.582311	            0.069516	            5.936195	          848.356075	          119.640923	           -0.201193	            0.005820	           -0.715164	           -0.003632	           -0.519043	           -0.073199
            0.014500	           14.962639	          904.871676	         -107.131585	           -0.190928	            0.006247	           -0.409200	           -0.007884	           -0.476792	            0.056449	            5.822098	          854.062608	          120.130613	           -0.201146	            0.005820	           -0.715187	           -0.004033	           -0.591653	           -0.083221
            0.015000	           14.456108	          911.002517	         -107.562620	           -0.190843	            0.006247	           -0.409191	           -0.004858	           -0.306168	            0.036149	            5.662980	          859.217949	          120.242927	           -0.200966	            0.005820	           -0.715156	           -0.004568	           -0.693025	           -0.096985
            0.015500	           13.765733	          917.855096	         -108.127663	           -0.190976	            0.006248	           -0.409251	           -0.000917	           -0.061119	            0.007200	            5.125034	          865.477116	          120.265486	           -0.200920	            0.005820	           -0.715016	           -0.004556	           -0.769449	           -0.106922
